{"glyphs":{":":{"x_min":0,"x_max":219,"ha":219,"o":"m 109 416 q 100 416 91 420 q 83 423 76 430 q 70 437 66 445 q 62 454 62 463 q 62 483 76 496 q 90 510 109 510 q 119 510 127 506 q 136 503 142 497 q 149 491 153 482 q 157 474 157 463 q 157 453 153 445 q 149 436 142 430 q 136 423 127 420 q 119 416 109 416 z m 109 -10 q 90 -10 76 4 q 62 18 62 37 q 62 57 76 71 q 89 84 109 84 q 119 84 128 81 q 136 77 143 71 q 149 65 153 56 q 157 47 157 37 q 157 27 153 19 q 149 10 143 4 q 136 -2 128 -6 q 119 -10 109 -10 z"},"$":{"x_min":0,"x_max":527,"ha":527,"o":"m 289 -102 l 244 -102 l 244 0 q 147 0 80 41 l 80 108 q 96 96 116 86 q 135 76 157 69 q 179 62 201 58 q 223 55 244 55 l 244 326 q 214 342 185 359 q 155 376 132 398 q 108 420 94 449 q 79 479 79 520 q 79 556 91 587 q 104 618 125 641 q 147 665 178 680 q 208 695 244 700 l 244 789 l 289 789 l 289 702 q 332 701 364 693 q 396 686 418 675 l 418 611 q 367 645 289 646 l 289 369 q 336 345 369 323 q 401 300 420 278 q 440 255 448 230 q 457 206 457 177 q 457 143 445 114 q 434 84 412 62 q 391 39 359 24 q 328 9 289 3 z m 244 645 q 198 636 171 605 q 144 574 144 528 q 144 506 148 489 q 153 472 164 456 q 176 440 195 426 q 214 411 244 394 z m 289 57 q 340 67 366 96 q 392 125 392 169 q 392 189 386 206 q 381 223 369 239 q 356 255 337 270 q 317 285 289 301 z"},"?":{"x_min":0,"x_max":439,"ha":439,"o":"m 174 194 q 169 207 166 227 q 162 247 162 267 q 162 292 170 312 q 178 332 190 350 q 203 368 220 385 q 237 401 255 418 q 270 432 283 446 q 296 460 307 477 q 317 493 323 511 q 330 529 330 550 q 330 576 321 595 q 312 615 296 628 q 280 642 258 649 q 236 656 211 656 q 167 656 130 640 q 93 624 61 593 l 61 663 q 97 688 135 700 q 174 712 217 712 q 254 712 286 702 q 318 692 341 672 q 365 653 378 624 q 392 596 392 558 q 392 531 385 508 q 377 485 365 465 q 352 446 336 429 q 321 412 304 396 q 283 376 267 360 q 251 344 241 330 q 230 315 224 300 q 219 285 219 266 q 219 244 223 225 q 228 207 233 194 z m 204 -9 q 195 -9 187 -5 q 178 -2 172 4 q 166 11 162 19 q 158 28 158 38 q 158 48 161 56 q 165 65 171 71 q 178 77 186 81 q 195 84 204 84 q 213 84 222 81 q 230 78 237 71 q 244 65 248 56 q 251 48 251 38 q 251 28 248 19 q 244 11 237 4 q 230 -2 222 -5 q 213 -9 204 -9 z"},"<":{"x_min":0,"x_max":667,"ha":667,"o":"m 127 278 l 127 297 l 540 528 l 540 469 l 218 290 l 218 288 l 540 129 l 540 69 z"},"'":{"x_min":0,"x_max":222,"ha":222,"o":"m 139 481 l 83 481 l 83 700 l 139 700 z"},"=":{"x_min":0,"x_max":667,"ha":667,"o":"m 108 365 l 108 417 l 559 417 l 559 365 z m 108 166 l 108 219 l 559 219 l 559 166 z"},"a":{"x_min":0,"x_max":501,"ha":501,"o":"m 369 0 l 369 89 l 367 89 q 342 41 300 15 q 258 -12 205 -12 q 168 -12 139 -1 q 110 9 90 28 q 70 46 59 73 q 48 99 48 131 q 48 199 90 239 q 132 279 217 292 l 369 313 q 369 458 257 458 q 169 458 95 394 l 95 462 q 110 473 130 482 q 150 491 172 498 q 194 504 217 508 q 240 512 262 512 q 346 512 388 465 q 431 418 431 325 l 431 0 z m 240 243 q 206 238 182 230 q 158 223 143 211 q 127 198 120 180 q 112 162 112 135 q 112 115 119 98 q 126 81 140 68 q 153 56 173 49 q 192 42 216 42 q 250 42 277 55 q 305 67 325 90 q 346 112 357 144 q 369 175 369 211 l 369 261 z"},"L":{"x_min":0,"x_max":464,"ha":464,"o":"m 91 0 l 91 700 l 156 700 l 156 59 l 437 59 l 437 0 z"},"3":{"x_min":0,"x_max":527,"ha":527,"o":"m 60 94 q 136 42 216 42 q 250 42 280 50 q 311 59 335 76 q 358 94 373 122 q 387 149 387 188 q 387 261 335 298 q 284 335 184 335 l 128 335 l 128 390 l 179 390 q 270 390 316 426 q 362 461 362 530 q 362 592 328 625 q 294 657 226 657 q 156 657 87 609 l 87 672 q 161 712 239 712 q 276 712 311 702 q 345 691 370 671 q 396 650 411 619 q 427 588 427 546 q 427 406 288 367 l 288 365 q 322 361 352 348 q 382 335 404 314 q 426 292 438 262 q 451 232 451 195 q 451 145 433 106 q 414 68 382 42 q 350 15 306 1 q 263 -12 214 -12 q 125 -12 60 25 z"},";":{"x_min":0,"x_max":219,"ha":219,"o":"m 113 416 q 92 416 79 430 q 66 443 66 463 q 66 483 79 497 q 93 510 113 510 q 132 510 146 496 q 160 483 160 463 q 160 453 156 445 q 152 436 145 430 q 139 423 130 420 q 122 416 113 416 z m 68 -125 l 21 -125 l 86 111 l 150 111 z"},"J":{"x_min":0,"x_max":340,"ha":340,"o":"m 254 246 q 254 115 206 52 q 158 -12 69 -12 q 52 -12 37 -10 q 22 -7 9 -2 l 9 62 q 37 47 70 47 q 132 47 161 96 q 189 145 189 246 l 189 700 l 254 700 z"},"V":{"x_min":0,"x_max":612,"ha":612,"o":"m 333 0 l 269 0 l 14 700 l 87 700 l 285 141 q 291 125 295 109 q 299 93 301 76 l 303 76 q 306 90 310 106 q 314 123 321 142 l 528 700 l 598 700 z"},"\"":{"x_min":0,"x_max":363,"ha":363,"o":"m 281 481 l 225 481 l 225 700 l 281 700 z m 139 481 l 83 481 l 83 700 l 139 700 z"},"7":{"x_min":0,"x_max":505,"ha":505,"o":"m 471 674 q 433 606 401 545 q 369 485 343 429 q 316 373 294 320 q 273 267 256 215 q 239 163 227 109 q 214 56 206 0 l 140 0 q 151 76 175 156 q 199 236 232 318 q 266 399 307 481 q 348 563 394 644 l 34 644 l 34 700 l 471 700 z"},"S":{"x_min":0,"x_max":514,"ha":514,"o":"m 63 103 q 81 89 102 79 q 124 68 146 61 q 168 54 190 51 q 213 47 233 47 q 313 47 353 78 q 392 108 392 166 q 392 194 383 215 q 374 235 354 253 q 334 271 305 289 q 275 307 234 330 q 189 354 157 376 q 125 397 105 420 q 85 443 75 469 q 66 496 66 529 q 66 572 84 605 q 102 639 133 663 q 164 687 205 699 q 246 712 293 712 q 375 712 431 689 l 431 617 q 369 653 286 653 q 254 653 227 645 q 199 638 178 623 q 158 608 146 587 q 134 565 134 536 q 134 509 142 489 q 150 469 168 452 q 186 434 215 417 q 244 399 286 377 q 330 354 362 331 q 395 309 417 285 q 438 261 449 234 q 460 207 460 173 q 460 127 443 93 q 426 58 395 35 q 364 12 322 0 q 279 -12 229 -12 q 212 -12 189 -9 q 166 -6 143 -1 q 119 4 98 11 q 77 18 63 26 z"},"}":{"x_min":0,"x_max":292,"ha":292,"o":"m 247 249 q 171 240 171 133 l 171 -12 q 171 -87 136 -122 q 102 -157 34 -159 l 34 -108 q 54 -107 68 -102 q 83 -96 93 -83 q 102 -71 107 -50 q 111 -30 111 0 l 111 138 q 111 247 184 270 l 184 271 q 111 294 111 399 l 111 542 q 111 571 106 591 q 102 611 92 623 q 83 636 68 642 q 53 647 34 648 l 34 700 q 102 698 136 663 q 171 628 171 552 l 171 404 q 171 300 247 292 z"},"Z":{"x_min":0,"x_max":570,"ha":570,"o":"m 122 59 l 531 59 l 531 0 l 24 0 l 24 19 l 439 641 l 57 641 l 57 700 l 540 700 l 540 684 z"},"x":{"x_min":0,"x_max":440,"ha":440,"o":"m 257 246 l 421 0 l 346 0 l 244 166 q 238 175 232 185 q 226 194 220 206 l 218 206 q 215 201 210 193 q 205 185 198 172 l 88 0 l 15 0 l 184 245 l 20 500 l 93 500 l 197 325 q 205 312 210 301 q 216 291 220 284 l 222 284 q 229 293 234 302 q 239 312 245 322 l 355 500 l 426 500 z"},")":{"x_min":0,"x_max":292,"ha":292,"o":"m 12 -159 q 164 23 164 268 q 164 520 11 700 l 71 700 q 221 526 221 267 q 221 14 72 -159 z"},"&":{"x_min":0,"x_max":701,"ha":701,"o":"m 600 0 l 515 84 q 418 -12 283 -12 q 232 -12 192 2 q 151 16 122 41 q 94 66 79 101 q 63 135 63 176 q 63 305 224 382 q 147 477 147 548 q 147 583 160 613 q 173 643 197 665 q 221 687 254 699 q 286 712 325 712 q 361 712 391 701 q 420 690 440 671 q 461 652 472 626 q 483 600 483 568 q 483 535 475 508 q 466 481 446 457 q 427 434 396 413 q 365 392 320 371 q 364 324 414 275 q 463 226 520 171 q 533 190 544 214 q 555 238 562 264 q 570 290 575 317 q 579 344 580 370 l 640 370 q 638 238 558 130 q 584 104 617 72 q 649 40 690 0 z m 283 409 q 320 426 346 444 q 372 461 389 479 q 405 498 413 519 q 421 539 421 562 q 421 583 413 601 q 406 619 393 632 q 379 645 362 652 q 344 659 324 659 q 298 659 277 651 q 256 643 241 628 q 227 613 219 592 q 210 572 210 548 q 210 490 283 409 z m 477 124 q 419 181 366 235 q 313 289 263 342 q 192 309 160 270 q 128 231 128 180 q 128 149 139 124 q 151 98 171 80 q 192 62 221 52 q 250 42 285 42 q 396 42 477 124 z"},"_":{"x_min":0,"x_max":415,"ha":415,"o":"m 0 -138 l 0 -87 l 415 -87 l 415 -138 z"},"v":{"x_min":0,"x_max":466,"ha":466,"o":"m 259 0 l 199 0 l 8 500 l 77 500 l 215 119 q 228 84 231 58 l 233 58 q 239 93 248 117 l 391 500 l 458 500 z"},"O":{"x_min":0,"x_max":757,"ha":757,"o":"m 376 -12 q 300 -12 240 15 q 179 43 137 91 q 95 139 72 203 q 49 268 49 342 q 49 424 72 492 q 95 561 138 609 q 182 658 245 685 q 308 712 388 712 q 462 712 521 685 q 581 659 622 612 q 664 564 686 500 q 708 436 708 360 q 708 280 686 212 q 665 144 622 94 q 580 44 518 16 q 457 -12 376 -12 z m 381 653 q 318 653 269 629 q 220 604 186 563 q 152 522 135 467 q 118 411 117 349 q 117 289 133 235 q 148 180 180 138 q 212 97 261 72 q 310 47 375 47 q 441 47 490 70 q 540 92 573 133 q 606 173 623 229 q 640 284 640 350 q 640 412 625 467 q 610 522 579 563 q 547 604 499 629 q 450 653 381 653 z"},"(":{"x_min":0,"x_max":292,"ha":292,"o":"m 220 -159 q 71 14 71 267 q 71 526 221 700 l 281 700 q 128 520 128 268 q 128 23 280 -159 z"},"C":{"x_min":0,"x_max":620,"ha":620,"o":"m 562 26 q 480 -12 376 -12 q 302 -12 242 14 q 181 40 138 86 q 96 133 73 197 q 49 261 49 336 q 49 416 74 485 q 99 553 145 604 q 190 654 256 683 q 321 712 402 712 q 491 712 562 685 l 562 615 q 486 653 401 653 q 333 653 280 629 q 228 606 191 564 q 155 522 136 466 q 117 409 117 341 q 117 281 134 227 q 151 174 185 134 q 218 94 268 70 q 318 47 384 47 q 485 47 562 89 z"},"W":{"x_min":0,"x_max":915,"ha":915,"o":"m 694 0 l 626 0 l 477 519 q 471 538 468 555 q 465 572 464 588 l 462 588 q 460 560 448 520 l 293 0 l 225 0 l 19 700 l 91 700 l 245 151 q 250 133 254 116 q 257 100 259 85 l 261 85 q 264 107 277 151 l 441 700 l 492 700 l 646 149 q 650 132 654 116 q 657 101 659 85 l 661 85 q 662 95 665 107 q 668 120 672 135 l 825 700 l 896 700 z"},"A":{"x_min":0,"x_max":636,"ha":636,"o":"m 544 0 l 467 207 l 167 207 l 92 0 l 20 0 l 286 700 l 352 700 l 617 0 z m 331 578 q 328 587 324 599 q 320 611 318 627 l 316 627 q 313 611 309 599 q 306 587 302 578 l 189 266 l 445 266 z"},"f":{"x_min":0,"x_max":294,"ha":294,"o":"m 313 681 q 292 695 259 695 q 171 695 171 580 l 171 500 l 296 500 l 296 445 l 171 445 l 171 0 l 109 0 l 109 445 l 21 445 l 21 500 l 109 500 l 109 584 q 109 622 118 652 q 128 683 146 704 q 165 726 193 738 q 221 750 258 750 q 293 750 313 740 z"},"Q":{"x_min":0,"x_max":757,"ha":757,"o":"m 376 -12 q 302 -12 241 14 q 181 40 138 87 q 96 133 73 198 q 49 264 49 342 q 49 427 73 495 q 97 563 141 611 q 185 660 247 686 q 310 712 388 712 q 459 712 518 686 q 577 661 619 614 q 662 567 685 503 q 708 438 708 360 q 708 247 668 164 q 628 82 557 37 l 750 -94 l 632 -94 l 492 6 q 465 -2 437 -7 q 408 -12 376 -12 z m 381 653 q 323 653 275 631 q 226 608 191 568 q 156 528 137 472 q 117 417 117 349 q 117 280 136 225 q 154 169 188 129 q 222 90 269 68 q 317 47 375 47 q 437 47 485 67 q 534 88 569 127 q 603 166 622 222 q 640 279 640 350 q 640 422 622 478 q 604 534 570 573 q 537 612 489 632 q 441 653 381 653 z"},"w":{"x_min":0,"x_max":700,"ha":700,"o":"m 532 0 l 470 0 l 364 367 q 359 384 356 412 l 354 412 q 353 404 351 394 q 349 383 344 368 l 227 0 l 166 0 l 15 500 l 82 500 l 191 112 q 196 95 198 69 l 202 69 q 203 78 205 89 q 208 100 211 113 l 333 500 l 384 500 l 493 112 q 497 95 500 68 l 504 68 q 503 77 506 88 q 508 99 512 112 l 622 500 l 685 500 z"},"-":{"x_min":0,"x_max":399,"ha":399,"o":"m 70 259 l 70 312 l 337 312 l 337 259 z"},"E":{"x_min":0,"x_max":503,"ha":503,"o":"m 91 0 l 91 700 l 432 700 l 432 641 l 156 641 l 156 384 l 412 384 l 412 325 l 156 325 l 156 59 l 448 59 l 448 0 z"},"s":{"x_min":0,"x_max":406,"ha":406,"o":"m 52 90 q 66 79 83 70 q 100 61 117 55 q 135 48 153 45 q 170 42 187 42 q 298 42 298 125 q 298 145 290 158 q 282 172 268 184 q 253 195 232 205 q 212 215 186 226 q 151 240 126 254 q 102 269 85 286 q 69 304 62 324 q 54 345 54 372 q 54 405 68 431 q 83 457 107 475 q 131 493 163 502 q 195 512 230 512 q 295 512 344 487 l 344 421 q 288 458 223 458 q 199 458 180 452 q 161 446 147 435 q 133 424 126 409 q 118 395 118 376 q 118 358 124 344 q 130 330 142 319 q 155 308 175 297 q 194 287 223 275 q 259 261 285 246 q 312 232 329 215 q 346 198 354 177 q 362 157 362 129 q 362 96 348 69 q 334 43 310 25 q 285 7 252 -2 q 219 -12 180 -12 q 104 -12 52 20 z"},">":{"x_min":0,"x_max":667,"ha":667,"o":"m 127 69 l 127 129 l 450 287 l 450 290 l 127 469 l 127 528 l 540 297 l 540 278 z"},"l":{"x_min":0,"x_max":224,"ha":224,"o":"m 81 0 l 81 740 l 143 740 l 143 0 z"},"8":{"x_min":0,"x_max":527,"ha":527,"o":"m 48 195 q 48 223 56 251 q 64 278 81 302 q 98 327 122 346 q 146 366 178 377 q 131 402 103 443 q 75 483 75 533 q 75 572 89 604 q 104 637 129 661 q 154 685 189 698 q 224 712 265 712 q 306 712 341 698 q 375 685 401 661 q 426 637 440 604 q 455 571 455 533 q 455 508 447 485 q 440 462 427 442 q 413 422 394 406 q 375 390 353 377 q 384 366 408 346 q 432 327 448 302 q 464 278 473 251 q 481 223 481 195 q 481 148 465 110 q 449 71 421 44 q 392 18 352 3 q 312 -11 264 -11 q 217 -11 177 3 q 138 18 109 44 q 80 71 64 109 q 48 147 48 195 z m 115 196 q 115 162 125 134 q 136 105 156 85 q 176 65 203 55 q 230 44 264 44 q 297 44 324 55 q 352 66 372 86 q 392 105 403 134 q 414 162 414 196 q 414 227 403 255 q 393 282 373 303 q 354 324 326 336 q 298 348 264 348 q 232 348 205 336 q 177 325 157 305 q 137 285 126 257 q 115 229 115 196 z m 139 529 q 139 502 149 479 q 159 456 176 438 q 193 421 216 411 q 239 401 265 401 q 291 401 313 411 q 336 421 354 439 q 371 456 381 479 q 391 503 391 529 q 391 557 381 580 q 371 604 354 621 q 337 638 314 648 q 291 658 265 658 q 237 658 214 648 q 190 638 174 620 q 157 603 148 579 q 139 556 139 529 z"},"\\":{"x_min":0,"x_max":373,"ha":373,"o":"m 321 -117 l -13 700 l 48 700 l 380 -117 z"},"e":{"x_min":0,"x_max":514,"ha":514,"o":"m 110 239 q 111 193 123 156 q 134 120 156 94 q 178 69 210 55 q 241 42 281 42 q 365 42 440 101 l 440 40 q 369 -12 267 -12 q 216 -12 175 6 q 134 23 105 57 q 77 90 61 139 q 45 188 45 250 q 45 307 62 354 q 80 402 110 437 q 140 472 182 492 q 223 512 272 512 q 321 512 358 495 q 395 478 420 447 q 445 416 458 371 q 472 326 472 270 l 472 239 z m 407 293 q 406 372 370 415 q 334 458 271 458 q 239 458 212 446 q 185 435 165 414 q 144 393 131 362 q 117 332 112 293 z"},"b":{"x_min":0,"x_max":574,"ha":574,"o":"m 143 81 l 143 0 l 81 0 l 81 740 l 143 740 l 143 404 l 145 404 q 173 457 219 484 q 266 512 325 512 q 373 512 410 494 q 448 477 474 445 q 500 413 514 367 q 528 322 528 266 q 528 204 512 153 q 497 102 467 65 q 438 29 396 9 q 354 -12 303 -12 q 197 -12 145 81 z m 143 208 q 143 174 155 144 q 166 114 187 91 q 207 68 236 55 q 265 42 300 42 q 338 42 368 58 q 398 74 420 103 q 441 132 452 174 q 464 215 464 267 q 464 311 453 346 q 442 381 423 406 q 403 431 375 444 q 347 458 312 458 q 273 458 242 443 q 210 429 188 404 q 167 379 155 345 q 143 312 143 274 z"},"%":{"x_min":0,"x_max":801,"ha":801,"o":"m 200 353 q 163 353 133 365 q 104 378 83 401 q 62 424 51 457 q 40 489 40 528 q 40 572 52 606 q 64 640 86 664 q 108 688 139 700 q 170 712 208 712 q 244 712 273 700 q 303 688 323 665 q 344 642 355 609 q 366 576 366 534 q 366 495 354 461 q 342 428 320 404 q 299 380 268 366 q 238 353 200 353 z m 206 666 q 180 666 159 656 q 139 647 125 630 q 110 612 103 587 q 95 562 95 530 q 95 469 123 434 q 152 399 203 399 q 229 399 249 408 q 269 418 283 436 q 296 453 304 478 q 311 503 311 534 q 311 598 283 632 q 254 666 206 666 z m 210 -10 l 151 -10 l 586 700 l 645 700 z m 600 -11 q 563 -11 534 1 q 504 14 483 37 q 462 60 451 93 q 440 125 440 165 q 440 208 452 242 q 464 276 486 300 q 508 324 539 336 q 570 349 607 349 q 644 349 673 337 q 703 325 723 302 q 744 279 755 245 q 766 212 766 170 q 766 130 754 97 q 742 64 720 40 q 699 16 668 2 q 638 -11 600 -11 z m 605 301 q 580 301 560 292 q 539 283 525 265 q 510 248 502 223 q 495 198 495 166 q 495 136 502 111 q 510 87 524 70 q 538 53 558 44 q 578 35 603 35 q 628 35 648 44 q 668 54 682 71 q 696 89 704 114 q 711 139 711 170 q 711 234 683 268 q 655 301 605 301 z"},"m":{"x_min":0,"x_max":841,"ha":841,"o":"m 709 0 l 709 294 q 709 339 702 370 q 695 401 681 420 q 667 440 644 449 q 622 458 591 458 q 564 458 540 445 q 515 432 497 409 q 479 386 468 355 q 458 325 458 289 l 458 0 l 395 0 l 395 300 q 395 458 274 458 q 247 458 223 445 q 199 433 181 410 q 163 388 153 356 q 143 325 143 287 l 143 0 l 81 0 l 81 500 l 143 500 l 143 419 l 145 419 q 198 512 299 512 q 325 512 349 504 q 372 496 391 481 q 409 467 423 447 q 436 427 443 403 q 469 456 511 484 q 554 512 607 512 q 771 512 771 309 l 771 0 z"},"#":{"x_min":0,"x_max":597,"ha":597,"o":"m 556 457 l 426 457 l 392 299 l 530 299 l 519 254 l 383 254 l 340 60 l 290 60 l 332 254 l 206 254 l 164 60 l 114 60 l 155 254 l 22 254 l 32 299 l 165 299 l 198 457 l 59 457 l 69 502 l 208 502 l 250 700 l 300 700 l 258 502 l 385 502 l 427 700 l 477 700 l 435 502 l 566 502 z m 249 457 l 214 299 l 342 299 l 376 457 z"},",":{"x_min":0,"x_max":219,"ha":219,"o":"m 68 -125 l 21 -125 l 86 111 l 150 111 z"},"n":{"x_min":0,"x_max":550,"ha":550,"o":"m 418 0 l 418 288 q 418 458 295 458 q 262 458 234 445 q 207 432 186 409 q 166 386 155 354 q 143 323 143 286 l 143 0 l 81 0 l 81 500 l 143 500 l 143 413 l 145 413 q 201 512 312 512 q 395 512 438 458 q 480 405 480 305 l 480 0 z"},"h":{"x_min":0,"x_max":550,"ha":550,"o":"m 418 0 l 418 294 q 418 378 388 418 q 357 458 293 458 q 263 458 236 445 q 208 433 188 410 q 167 387 155 354 q 143 321 143 280 l 143 0 l 81 0 l 81 740 l 143 740 l 143 414 l 145 414 q 204 512 313 512 q 396 512 438 460 q 480 409 480 309 l 480 0 z"},"z":{"x_min":0,"x_max":458,"ha":458,"o":"m 117 55 l 425 55 l 425 0 l 22 0 l 22 21 l 336 445 l 48 445 l 48 500 l 433 500 l 433 482 z"},"B":{"x_min":0,"x_max":559,"ha":559,"o":"m 91 0 l 91 700 l 282 700 q 326 700 361 688 q 396 677 420 656 q 445 634 458 604 q 471 575 471 539 q 471 509 463 482 q 455 456 439 434 q 423 413 401 397 q 378 381 349 372 l 349 370 q 384 366 413 353 q 442 339 462 317 q 483 295 494 265 q 505 236 505 201 q 505 156 489 119 q 473 83 444 56 q 415 29 375 15 q 335 0 287 0 z m 156 641 l 156 392 l 247 392 q 282 392 311 401 q 340 411 360 428 q 381 446 392 471 q 403 496 403 527 q 403 641 261 641 z m 156 333 l 156 59 l 276 59 q 354 59 396 95 q 438 132 438 199 q 438 333 254 333 z"},"K":{"x_min":0,"x_max":553,"ha":553,"o":"m 458 0 l 173 328 q 161 342 158 348 l 156 348 l 156 0 l 91 0 l 91 700 l 156 700 l 156 371 l 158 371 q 161 376 165 381 q 169 386 173 391 l 446 700 l 528 700 l 225 362 l 548 0 z"},"R":{"x_min":0,"x_max":577,"ha":577,"o":"m 472 0 l 367 201 q 351 230 336 250 q 322 271 306 282 q 291 294 273 300 q 255 305 233 305 l 156 305 l 156 0 l 91 0 l 91 700 l 292 700 q 332 700 369 688 q 406 677 435 654 q 463 631 481 596 q 498 562 498 516 q 498 479 487 447 q 476 416 455 392 q 434 368 405 351 q 375 334 338 326 l 338 324 q 352 318 364 309 q 375 299 386 286 q 397 273 408 256 q 419 239 431 217 l 548 0 z m 156 641 l 156 364 l 272 364 q 307 364 336 374 q 366 384 386 403 q 407 422 419 449 q 430 476 430 510 q 430 571 391 606 q 352 641 277 641 z"},"T":{"x_min":0,"x_max":518,"ha":518,"o":"m 291 641 l 291 0 l 226 0 l 226 641 l 24 641 l 24 700 l 493 700 l 493 641 z"},"P":{"x_min":0,"x_max":552,"ha":552,"o":"m 156 272 l 156 0 l 91 0 l 91 700 l 271 700 q 327 700 369 687 q 412 673 441 647 q 470 621 485 583 q 500 546 500 498 q 500 449 483 407 q 466 366 434 336 q 402 306 356 289 q 311 272 252 272 z m 156 641 l 156 332 l 249 332 q 339 332 386 374 q 433 416 433 493 q 433 641 260 641 z"},"|":{"x_min":0,"x_max":232,"ha":232,"o":"m 87 -235 l 87 765 l 146 765 l 146 -235 z"},"t":{"x_min":0,"x_max":318,"ha":318,"o":"m 295 6 q 263 -10 225 -10 q 104 -10 104 129 l 104 445 l 16 445 l 16 500 l 104 500 l 104 626 l 167 646 l 167 500 l 295 500 l 295 445 l 167 445 l 167 139 q 167 88 183 66 q 200 43 239 43 q 269 43 295 61 z"},"M":{"x_min":0,"x_max":865,"ha":865,"o":"m 710 0 l 710 483 q 710 521 716 603 l 714 603 q 708 581 702 565 q 696 549 691 539 l 447 0 l 419 0 l 175 535 q 164 560 153 604 l 151 604 q 153 582 154 553 q 154 524 154 489 l 154 0 l 91 0 l 91 700 l 167 700 l 405 174 q 413 157 420 140 q 427 123 433 103 l 436 103 q 442 123 448 139 q 454 155 462 173 l 702 700 l 774 700 l 774 0 z"},"g":{"x_min":0,"x_max":574,"ha":574,"o":"m 494 39 q 494 -101 430 -168 q 367 -235 235 -235 q 153 -235 80 -198 l 80 -135 q 162 -180 235 -180 q 431 -180 431 27 l 431 87 l 429 87 q 372 -12 253 -12 q 207 -12 169 5 q 130 22 103 55 q 76 87 61 133 q 45 179 45 237 q 45 299 62 349 q 78 400 107 436 q 137 472 179 492 q 222 512 274 512 q 380 512 429 426 l 431 426 l 431 500 l 494 500 z m 431 304 q 431 335 420 363 q 409 391 389 412 q 369 433 341 445 q 313 458 280 458 q 241 458 210 442 q 178 427 156 399 q 134 372 122 332 q 110 292 110 242 q 110 196 121 159 q 132 122 153 96 q 173 70 202 56 q 231 42 267 42 q 304 42 334 55 q 365 69 386 93 q 408 116 419 148 q 431 180 431 217 z"},"j":{"x_min":0,"x_max":224,"ha":224,"o":"m 143 18 q 143 -106 99 -171 q 55 -235 -41 -235 q -75 -235 -110 -219 l -110 -158 q -72 -181 -38 -181 q 81 -181 81 7 l 81 500 l 143 500 z m 111 626 q 93 626 80 639 q 67 652 67 671 q 67 690 80 703 q 93 715 111 715 q 121 715 129 712 q 137 709 143 703 q 149 697 153 689 q 157 681 157 671 q 157 662 153 654 q 150 646 144 639 q 137 633 129 630 q 121 626 111 626 z"},"i":{"x_min":0,"x_max":224,"ha":224,"o":"m 111 626 q 93 626 80 639 q 67 652 67 671 q 67 690 80 703 q 93 715 111 715 q 121 715 129 712 q 137 709 143 703 q 149 697 153 689 q 157 681 157 671 q 157 662 153 654 q 150 646 144 639 q 137 633 129 630 q 121 626 111 626 z m 81 0 l 81 500 l 143 500 l 143 0 z"},"y":{"x_min":0,"x_max":468,"ha":468,"o":"m 226 -91 q 196 -164 158 -199 q 120 -235 66 -235 q 39 -235 21 -229 l 21 -170 q 31 -174 42 -176 q 53 -178 64 -178 q 95 -178 118 -158 q 141 -139 157 -100 l 201 2 l 8 500 l 78 500 l 221 104 q 224 96 226 86 q 229 76 231 66 l 234 66 q 236 75 239 83 q 241 92 245 102 l 396 500 l 462 500 z"},"@":{"x_min":0,"x_max":949,"ha":949,"o":"m 563 207 q 523 90 422 90 q 385 90 357 105 q 330 119 311 144 q 292 168 283 201 q 273 234 273 271 q 273 301 279 332 q 284 362 295 391 q 306 419 322 445 q 339 470 361 489 q 384 507 413 518 q 442 529 477 529 q 493 529 508 525 q 524 521 538 512 q 551 504 562 492 q 573 480 579 465 l 581 465 l 585 522 l 637 522 l 613 242 q 613 139 680 139 q 705 139 724 148 q 743 158 758 175 q 772 191 782 213 q 792 235 799 258 q 805 282 808 306 q 811 330 811 351 q 811 422 787 480 q 763 538 720 578 q 677 619 616 641 q 556 663 482 663 q 431 663 386 650 q 341 637 303 614 q 265 591 234 558 q 204 525 183 485 q 162 445 151 398 q 140 351 140 300 q 140 224 164 160 q 188 97 232 52 q 276 7 339 -18 q 402 -43 480 -43 q 601 -43 687 -1 l 687 -55 q 598 -92 475 -92 q 388 -92 315 -63 q 243 -34 192 18 q 140 69 112 141 q 83 213 83 298 q 83 355 96 407 q 109 460 134 506 q 159 552 194 590 q 229 627 274 654 q 319 681 373 696 q 426 711 487 711 q 540 711 588 699 q 637 688 679 666 q 722 644 756 613 q 791 581 816 542 q 841 502 854 455 q 868 408 868 355 q 868 327 863 296 q 858 266 849 236 q 839 207 824 180 q 809 154 788 134 q 767 114 739 102 q 711 90 677 90 q 570 90 565 207 z m 476 480 q 437 480 409 462 q 381 443 364 413 q 347 383 339 346 q 331 309 331 273 q 331 242 338 217 q 345 192 358 175 q 371 158 389 148 q 407 139 430 139 q 458 139 478 150 q 499 161 514 179 q 530 197 540 221 q 550 245 557 270 q 563 296 566 322 q 568 348 568 370 q 568 425 544 453 q 521 480 476 480 z"},".":{"x_min":0,"x_max":219,"ha":219,"o":"m 109 -10 q 90 -10 76 4 q 62 18 62 37 q 62 57 76 71 q 89 84 109 84 q 119 84 128 81 q 136 77 143 71 q 149 65 153 56 q 157 47 157 37 q 157 27 153 19 q 149 10 143 4 q 136 -2 128 -6 q 119 -10 109 -10 z"},"p":{"x_min":0,"x_max":574,"ha":574,"o":"m 143 81 l 143 -230 l 81 -230 l 81 500 l 143 500 l 143 404 l 145 404 q 173 457 219 484 q 266 512 325 512 q 373 512 410 494 q 448 477 474 445 q 500 414 514 368 q 528 323 528 266 q 528 204 513 153 q 497 102 468 65 q 438 29 397 9 q 355 -12 303 -12 q 197 -12 145 81 z m 143 208 q 143 174 155 144 q 166 114 187 91 q 207 68 236 55 q 265 42 300 42 q 338 42 368 58 q 398 74 420 103 q 441 132 452 174 q 464 215 464 267 q 464 311 453 346 q 442 381 423 406 q 403 431 375 444 q 347 458 312 458 q 273 458 242 443 q 210 429 188 404 q 167 379 155 345 q 143 312 143 274 z"},"X":{"x_min":0,"x_max":576,"ha":576,"o":"m 472 0 l 311 268 q 306 277 300 288 q 294 299 290 309 l 288 309 q 283 299 278 289 q 272 279 266 268 l 101 0 l 21 0 l 249 353 l 37 700 l 116 700 l 266 445 q 273 434 279 422 q 285 410 292 397 l 293 397 q 300 412 307 424 q 313 436 320 446 l 472 700 l 547 700 l 333 354 l 551 0 z"},"*":{"x_min":0,"x_max":411,"ha":411,"o":"m 238 512 l 333 388 l 288 357 l 207 489 l 125 357 l 80 388 l 175 512 l 36 544 l 52 596 l 188 547 l 178 700 l 234 700 l 226 547 l 359 596 l 376 544 z"},"Y":{"x_min":0,"x_max":546,"ha":546,"o":"m 301 262 l 301 0 l 236 0 l 236 261 l 17 700 l 90 700 l 250 373 q 253 367 258 355 q 263 344 270 326 l 271 326 q 274 334 280 346 q 285 358 293 373 l 460 700 l 530 700 z"},"c":{"x_min":0,"x_max":453,"ha":453,"o":"m 413 22 q 357 -11 278 -12 q 225 -13 182 6 q 139 25 108 59 q 78 93 62 139 q 46 186 46 240 q 46 296 63 345 q 80 395 113 432 q 146 469 193 490 q 240 512 301 512 q 363 512 415 488 l 415 421 q 360 458 296 458 q 252 458 217 441 q 183 424 159 395 q 135 366 123 327 q 110 288 110 245 q 110 205 121 168 q 131 131 153 103 q 175 75 208 59 q 241 42 286 42 q 356 42 413 84 z"},"!":{"x_min":0,"x_max":284,"ha":284,"o":"m 168 197 l 114 197 l 107 700 l 175 700 z m 142 -9 q 123 -9 109 5 q 95 18 95 38 q 95 58 109 71 q 123 84 142 84 q 151 84 160 81 q 168 78 175 71 q 181 65 185 56 q 189 48 189 38 q 189 28 185 19 q 181 11 175 4 q 168 -2 160 -5 q 151 -9 142 -9 z"},"/":{"x_min":0,"x_max":378,"ha":378,"o":"m 45 -116 l -14 -116 l 324 700 l 385 700 z"},"[":{"x_min":0,"x_max":292,"ha":292,"o":"m 100 -159 l 100 700 l 267 700 l 267 650 l 158 650 l 158 -109 l 267 -109 l 267 -159 z"},"6":{"x_min":0,"x_max":527,"ha":527,"o":"m 486 222 q 486 171 470 128 q 455 85 426 54 q 397 23 358 5 q 319 -12 272 -12 q 221 -12 181 9 q 142 30 114 71 q 86 112 72 172 q 57 231 57 308 q 57 399 76 474 q 96 548 132 601 q 168 654 219 683 q 271 712 336 712 q 401 712 445 693 l 445 631 q 394 657 336 657 q 287 657 247 634 q 208 611 180 568 q 152 526 137 467 q 122 407 122 335 l 124 335 q 174 438 291 438 q 335 438 371 422 q 407 406 433 377 q 458 348 472 309 q 486 269 486 222 z m 422 212 q 422 251 412 283 q 402 314 383 337 q 365 359 338 371 q 311 383 277 383 q 245 383 217 371 q 189 358 169 336 q 149 315 138 287 q 127 259 127 229 q 127 191 138 157 q 148 123 168 98 q 188 72 215 57 q 242 42 275 42 q 308 42 334 55 q 361 68 381 91 q 400 113 411 144 q 422 175 422 212 z"},"r":{"x_min":0,"x_max":339,"ha":339,"o":"m 329 436 q 307 452 272 452 q 247 452 228 443 q 209 433 195 417 q 180 401 170 380 q 160 358 154 335 q 148 312 145 289 q 143 266 143 245 l 143 0 l 81 0 l 81 500 l 143 500 l 143 393 l 145 393 q 153 420 167 442 q 180 464 198 479 q 215 494 236 501 q 257 509 280 509 q 295 509 307 507 q 319 505 329 501 z"},"2":{"x_min":0,"x_max":527,"ha":527,"o":"m 386 521 q 386 554 376 579 q 366 605 348 622 q 330 640 305 648 q 279 657 249 657 q 202 657 158 635 q 115 613 77 576 l 77 645 q 114 677 158 694 q 202 712 257 712 q 266 712 274 711 q 282 710 290 708 q 326 704 356 690 q 385 675 406 652 q 427 629 439 598 q 450 566 450 528 q 450 483 438 447 q 427 412 405 382 q 383 352 353 325 q 322 298 285 271 q 243 241 213 218 q 183 195 163 174 q 143 153 133 132 q 123 111 120 85 q 117 78 116 71 q 116 64 116 56 l 464 56 l 464 0 l 50 0 l 50 34 q 50 81 61 115 q 72 149 95 179 q 119 209 155 239 q 192 269 243 306 q 278 332 305 355 q 332 379 350 404 q 368 429 377 458 q 386 486 386 521 z"},"{":{"x_min":0,"x_max":292,"ha":292,"o":"m 259 -159 q 190 -157 156 -122 q 122 -87 122 -12 l 122 133 q 122 187 102 216 q 83 245 45 249 l 45 292 q 122 301 122 404 l 122 552 q 122 627 156 663 q 190 698 259 700 l 259 648 q 217 646 199 621 q 181 597 181 542 l 181 399 q 181 293 109 271 l 109 270 q 181 247 181 138 l 181 0 q 181 -28 185 -48 q 189 -68 198 -81 q 208 -94 222 -101 q 237 -107 259 -108 z"},"9":{"x_min":0,"x_max":527,"ha":527,"o":"m 477 394 q 477 297 458 221 q 440 146 405 94 q 369 42 317 15 q 265 -12 197 -12 q 138 -12 85 9 l 85 72 q 143 42 199 42 q 302 42 357 125 q 413 207 413 364 l 411 364 q 364 263 247 263 q 203 263 167 279 q 130 295 104 323 q 77 352 62 392 q 48 432 48 479 q 48 531 64 574 q 81 617 110 647 q 139 678 179 695 q 219 712 266 712 q 315 712 355 691 q 394 671 421 631 q 448 590 463 531 q 477 471 477 394 z m 407 465 q 407 508 396 543 q 385 579 366 604 q 346 629 319 643 q 292 657 259 657 q 228 657 201 645 q 174 632 154 610 q 135 587 124 557 q 112 526 112 489 q 112 450 123 418 q 134 386 153 364 q 173 342 200 331 q 228 319 261 319 q 292 319 318 331 q 345 342 365 362 q 384 382 396 408 q 407 435 407 465 z"}," ":{"x_min":0,"x_max":274,"ha":274,"o":""},"I":{"x_min":0,"x_max":247,"ha":247,"o":"m 156 0 l 91 0 l 91 700 l 156 700 z"},"H":{"x_min":0,"x_max":693,"ha":693,"o":"m 538 0 l 538 328 l 156 328 l 156 0 l 91 0 l 91 700 l 156 700 l 156 386 l 538 386 l 538 700 l 603 700 l 603 0 z"},"4":{"x_min":0,"x_max":549,"ha":549,"o":"m 418 700 l 418 230 l 527 230 l 527 174 l 418 174 l 418 0 l 356 0 l 356 174 l 24 174 l 24 230 q 71 283 118 343 q 166 403 209 465 q 253 526 290 587 q 326 647 351 700 z m 356 230 l 356 600 q 320 538 284 484 q 249 430 215 384 q 182 337 151 299 q 121 261 95 230 z"},"~":{"x_min":0,"x_max":667,"ha":667,"o":"m 557 356 q 553 292 521 257 q 488 222 432 222 q 381 222 318 269 q 268 306 236 306 q 167 306 163 224 l 111 224 q 112 255 122 280 q 131 305 147 323 q 163 340 186 350 q 208 359 236 359 q 285 359 341 318 q 358 306 371 297 q 384 289 395 283 q 406 278 416 276 q 425 274 435 274 q 466 274 484 295 q 502 317 505 356 z"},"D":{"x_min":0,"x_max":688,"ha":688,"o":"m 91 0 l 91 700 l 275 700 q 455 700 546 614 q 638 528 638 359 q 638 278 613 212 q 587 146 539 98 q 490 51 421 26 q 353 0 266 0 z m 156 641 l 156 59 l 263 59 q 335 59 392 79 q 449 98 489 136 q 528 174 549 229 q 570 285 570 357 q 570 641 271 641 z"},"^":{"x_min":0,"x_max":667,"ha":667,"o":"m 488 324 l 332 625 l 330 625 l 179 324 l 120 324 l 316 712 l 342 712 l 548 324 z"},"0":{"x_min":0,"x_max":527,"ha":527,"o":"m 257 -12 q 207 -12 167 11 q 127 33 100 77 q 72 121 58 186 q 43 250 43 335 q 43 522 102 617 q 161 712 272 712 q 483 712 483 353 q 483 264 468 196 q 453 128 424 82 q 395 36 353 12 q 311 -12 257 -12 z m 268 657 q 190 657 149 578 q 108 499 108 340 q 108 194 147 118 q 187 42 264 42 q 301 42 330 62 q 359 82 379 120 q 398 158 408 215 q 418 271 418 345 q 418 657 268 657 z"},"F":{"x_min":0,"x_max":477,"ha":477,"o":"m 156 641 l 156 377 l 412 377 l 412 318 l 156 318 l 156 0 l 91 0 l 91 700 l 432 700 l 432 641 z"},"`":{"x_min":0,"x_max":258,"ha":258,"o":"m 163 587 l 39 748 l 105 748 l 216 587 z"},"k":{"x_min":0,"x_max":470,"ha":470,"o":"m 375 0 l 145 244 l 143 244 l 143 0 l 81 0 l 81 740 l 143 740 l 143 267 l 145 267 l 363 500 l 445 500 l 210 258 l 463 0 z"},"u":{"x_min":0,"x_max":551,"ha":551,"o":"m 408 0 l 408 85 l 406 85 q 355 -12 248 -12 q 70 -12 70 206 l 70 500 l 132 500 l 132 218 q 132 128 164 85 q 196 42 262 42 q 294 42 321 54 q 348 67 367 90 q 386 112 397 144 q 408 176 408 214 l 408 500 l 470 500 l 470 0 z"},"]":{"x_min":0,"x_max":292,"ha":292,"o":"m 25 -159 l 25 -109 l 134 -109 l 134 650 l 25 650 l 25 700 l 192 700 l 192 -159 z"},"U":{"x_min":0,"x_max":667,"ha":667,"o":"m 585 281 q 585 -12 328 -12 q 82 -12 82 271 l 82 700 l 147 700 l 147 276 q 147 161 193 104 q 240 47 337 47 q 521 47 521 270 l 521 700 l 585 700 z"},"o":{"x_min":0,"x_max":573,"ha":573,"o":"m 285 -12 q 229 -12 185 7 q 141 25 110 59 q 79 93 62 141 q 45 188 45 246 q 45 308 63 357 q 81 407 113 441 q 146 476 191 494 q 237 512 294 512 q 348 512 392 494 q 435 476 465 442 q 496 409 512 360 q 528 312 528 250 q 528 192 511 144 q 494 96 463 61 q 432 26 387 7 q 342 -12 285 -12 z m 290 458 q 249 458 216 443 q 183 429 159 402 q 135 375 123 336 q 110 296 110 247 q 110 200 123 162 q 135 125 158 98 q 182 71 215 56 q 248 42 289 42 q 331 42 363 56 q 396 70 418 96 q 440 123 452 162 q 463 200 463 250 q 463 351 418 404 q 374 458 290 458 z"},"N":{"x_min":0,"x_max":729,"ha":729,"o":"m 570 0 l 182 562 q 174 573 167 584 q 160 595 156 606 l 153 606 q 154 597 155 582 q 156 566 156 542 l 156 0 l 91 0 l 91 700 l 163 700 l 545 145 q 554 132 561 120 q 568 109 574 99 l 576 99 q 574 115 573 135 q 572 155 572 180 l 572 700 l 638 700 l 638 0 z"},"+":{"x_min":0,"x_max":667,"ha":667,"o":"m 360 265 l 360 66 l 307 66 l 307 265 l 108 265 l 108 318 l 307 318 l 307 517 l 360 517 l 360 318 l 559 318 l 559 265 z"},"G":{"x_min":0,"x_max":677,"ha":677,"o":"m 605 48 q 498 -12 377 -12 q 301 -12 240 14 q 180 40 137 87 q 95 133 72 198 q 49 263 49 340 q 49 392 60 439 q 71 486 93 528 q 114 569 145 603 q 175 637 215 661 q 255 686 303 699 q 351 712 406 712 q 510 712 591 675 l 591 603 q 501 653 398 653 q 334 653 282 629 q 230 606 194 565 q 158 524 138 468 q 118 412 117 347 q 117 282 134 227 q 151 172 186 132 q 220 92 270 69 q 320 47 386 47 q 475 47 541 84 l 541 297 l 381 297 l 381 356 l 605 356 z"},"q":{"x_min":0,"x_max":574,"ha":574,"o":"m 431 -230 l 431 89 l 429 89 q 376 -12 253 -12 q 206 -12 167 6 q 129 23 102 56 q 75 89 60 135 q 45 182 45 240 q 45 303 62 353 q 79 403 109 438 q 140 474 182 493 q 224 512 275 512 q 382 512 429 425 l 431 425 l 431 500 l 494 500 l 494 -230 z m 431 299 q 431 333 420 362 q 409 391 389 412 q 369 433 341 445 q 312 458 278 458 q 241 458 210 443 q 179 429 157 401 q 135 374 122 334 q 110 293 110 242 q 110 195 121 158 q 132 121 153 95 q 173 69 202 56 q 230 42 264 42 q 304 42 335 56 q 366 70 387 94 q 409 118 420 150 q 431 182 431 219 z"},"d":{"x_min":0,"x_max":574,"ha":574,"o":"m 431 0 l 431 88 l 429 88 q 404 41 358 14 q 312 -12 253 -12 q 207 -12 168 6 q 130 23 103 56 q 75 88 60 135 q 45 181 45 240 q 45 300 62 350 q 78 400 108 436 q 138 472 180 492 q 223 512 274 512 q 382 512 429 425 l 431 425 l 431 740 l 494 740 l 494 0 z m 431 302 q 431 334 420 363 q 409 391 389 412 q 369 433 341 445 q 312 458 279 458 q 242 458 210 443 q 179 428 157 401 q 135 373 122 333 q 110 294 110 244 q 110 196 121 159 q 132 121 153 95 q 174 69 203 56 q 231 42 267 42 q 305 42 335 56 q 366 69 387 93 q 408 117 420 149 q 431 182 431 218 z"},"1":{"x_min":0,"x_max":375,"ha":375,"o":"m 208 0 l 208 626 q 191 611 170 598 q 148 584 126 572 q 104 560 82 551 q 60 541 41 535 l 41 590 q 98 608 151 641 q 203 673 252 716 l 271 716 l 271 0 z"},"5":{"x_min":0,"x_max":527,"ha":527,"o":"m 78 84 q 148 42 218 42 q 258 42 290 54 q 322 65 345 87 q 368 108 380 139 q 392 169 392 206 q 392 283 345 323 q 297 364 205 364 q 168 364 99 358 l 120 700 l 425 700 l 425 644 l 173 644 l 159 417 q 201 419 226 419 q 282 419 324 405 q 367 391 396 364 q 426 337 441 298 q 456 260 456 211 q 456 161 440 120 q 424 79 393 50 q 362 21 317 4 q 272 -12 215 -12 q 129 -12 78 16 z"}}}
